<?xml version="1.0" standalone="no"?>
<!DOCTYPE svg PUBLIC "-//W3C//DTD SVG 20010904//EN"
 "http://www.w3.org/TR/2001/REC-SVG-20010904/DTD/svg10.dtd">
<svg version="1.0" xmlns="http://www.w3.org/2000/svg"
 width="512.000000pt" height="512.000000pt" viewBox="0 0 512.000000 512.000000"
 preserveAspectRatio="xMidYMid meet">

<g transform="translate(0.000000,512.000000) scale(0.100000,-0.100000)"
fill="#000000" stroke="none">
<path d="M1920 4309 c-442 -57 -997 -302 -1336 -590 -184 -156 -348 -358 -440
-541 -43 -86 -97 -245 -121 -358 -25 -119 -25 -401 0 -519 43 -202 108 -356
222 -527 253 -379 740 -709 1299 -879 247 -74 504 -110 631 -86 340 63 572
476 664 1182 53 402 53 736 0 1138 -64 489 -190 830 -379 1022 -144 146 -293
190 -540 158z m236 -328 c180 -82 323 -465 386 -1031 19 -174 16 -641 -6 -825
-63 -538 -205 -905 -381 -986 -52 -24 -116 -24 -257 1 -226 39 -436 109 -673
225 -557 273 -875 674 -902 1135 -30 535 332 1007 1004 1304 190 85 374 142
568 176 133 24 209 24 261 1z"/>
<path d="M3135 3986 c-67 -29 -105 -106 -91 -181 9 -47 59 -102 104 -115 25
-8 329 -10 954 -8 908 3 917 3 944 24 53 39 69 71 69 134 0 63 -16 95 -69 134
-27 21 -36 21 -954 23 -755 2 -933 0 -957 -11z"/>
<path d="M3295 3346 c-67 -29 -105 -106 -91 -181 9 -47 59 -102 104 -115 25
-8 305 -10 874 -8 827 3 837 3 864 24 53 39 69 71 69 134 0 63 -16 95 -69 134
-27 21 -36 21 -874 23 -689 2 -853 0 -877 -11z"/>
<path d="M3455 2706 c-67 -29 -105 -106 -91 -181 9 -47 59 -102 104 -115 25
-8 281 -10 794 -8 746 3 757 3 784 24 53 39 69 71 69 134 0 63 -16 95 -69 134
-27 21 -37 21 -794 23 -622 2 -773 0 -797 -11z"/>
<path d="M3295 2066 c-67 -29 -105 -106 -91 -181 9 -47 59 -102 104 -115 25
-8 305 -10 874 -8 827 3 837 3 864 24 53 39 69 71 69 134 0 63 -16 95 -69 134
-27 21 -36 21 -874 23 -689 2 -853 0 -877 -11z"/>
<path d="M3135 1426 c-67 -29 -105 -106 -91 -181 9 -47 59 -102 104 -115 25
-8 329 -10 954 -8 908 3 917 3 944 24 53 39 69 71 69 134 0 63 -16 95 -69 134
-27 21 -36 21 -954 23 -755 2 -933 0 -957 -11z"/>
</g>
</svg>
